<?xml version="1.0" encoding="UTF-8"?>
<svg width="310px" height="310px" viewBox="0 0 310 310" version="1.1" xmlns="http://www.w3.org/2000/svg" xmlns:xlink="http://www.w3.org/1999/xlink">
    <!-- Generator: Sketch 53 (72520) - https://sketchapp.com -->
    <title>til</title>
    <desc>Created with Sketch.</desc>
    <g id="Page-1" stroke="none" stroke-width="1" fill="none" fill-rule="evenodd">
        <g id="til" fill="#497CF7">
            <path d="M20,0 L290,0 C301.046,0 310,8.954 310,20 L310,290 C310,301.046 301.046,310 290,310 L20,310 C8.954,310 0,301.046 0,290 L0,20 C0,8.954 8.954,0 20,0 Z M49,256.305 L94.508,249.226 C96.7866004,231.91404 99.3151976,214.635904 102.093,197.397 C103.273,190.317 104.453,182.902 105.633,175.148 C106.794267,167.511726 108.016306,159.884818 109.299,152.268 C110.563,144.768 111.869,137.52 113.218,130.525 C114.442161,124.154484 115.706186,117.791692 117.01,111.437 C120.718,110.762 128.36,110.172 129.622,109.793 C130.883,109.414 137.167,73.668 134.911,73.893 C132.655,74.116 112.501,74.988 104.495,75.409 C96.489,75.83 88.188,76.041 79.592,76.041 C70.8176101,76.0413872 62.0464545,75.7041377 53.298,75.03 C53.129,79.412 52.961,83.542 52.792,87.418 C52.624,90.958 52.54,94.498 52.54,98.037 C52.54,101.577 52.455,104.695 52.287,107.391 C56.163,108.571 60.082,109.077 64.043,108.908 C68.004,108.74 71.923,108.908 75.799,109.414 C74.8665839,116.287445 73.8975702,123.155876 72.892,130.019 C71.7521521,137.792064 70.4879903,145.54639 69.1,153.279 C67.6436051,161.41503 66.1686012,169.547718 64.675,177.677 C63.220648,185.61047 61.7039345,193.532382 60.125,201.442 C56.5293634,219.752338 52.8209597,238.040352 49,256.305 L49,256.305 Z M159.929,241.829 C161.444888,233.519628 163.003909,225.218183 164.606,216.925 C166.376,207.739 168.146,198.259 169.916,188.483 C171.686,178.707 173.539,168.847 175.478,158.903 C177.350508,149.290712 179.246513,139.683017 181.166,130.08 C185.628505,107.931594 190.010867,85.7671153 194.313,63.587 L154.873,69.907 C150.930781,92.1062452 146.800633,114.271707 142.483,136.401 C140.63,145.671 138.733,155.278 136.795,165.223 C134.878553,175.062513 132.856102,184.881084 130.728,194.677 C128.712307,203.957915 126.647278,213.228046 124.533,222.487 C122.511,231.337 120.488,239.385 118.466,246.632 C118.803,246.464 120.867,246.127 124.66,245.622 C128.913338,245.056062 133.169042,244.508057 137.427,243.978 C142.147,243.388 146.697,242.882 151.08,242.461 C155.462,242.039 158.412,241.829 159.929,241.829 L159.929,241.829 Z M251.973,231.989 C253.321,231.989 254.627,232.031 255.891,232.115 C257.156,232.199 258.461,232.242 259.811,232.242 C259.641,231.567 259.431,230.262 259.178,228.322 C258.925,226.384 258.588,224.152 258.167,221.623 C257.745,219.095 257.367,216.272 257.029,213.153 C256.689307,210.000562 256.436544,206.839362 256.271,203.673 C252.563,203.673 248.307,203.715 243.503,203.799 C238.699,203.883 234.191,204.094 229.977,204.431 C230.82,198.531 231.915,191.79 233.264,184.205 C234.665249,176.345439 236.18208,168.506924 237.814,160.692 C239.5,152.602 241.27,144.301 243.124,135.789 C244.914625,127.558162 246.76868,119.341251 248.686,111.139 C252.9,92.597 257.282,73.551 261.833,54 L217.588,59.815 C212.958608,82.2837252 208.491824,104.785647 204.188,127.319 C202.259516,136.988465 200.447718,146.680837 198.753,156.394 C196.997424,166.425207 195.227422,176.453884 193.443,186.48 C191.732063,196.062061 190.172868,205.670597 188.766,215.302 C187.536288,223.722632 186.356268,232.150445 185.226,240.585 C189.778,239.068 194.876,237.762 200.523,236.666 C206.259017,235.55655 212.03606,234.670879 217.841,234.011 C223.741,233.337 229.598,232.831 235.413,232.494 C240.926983,232.166189 246.449288,231.997786 251.973,231.989 L251.973,231.989 Z" id="Shape"></path>
        </g>
    </g>
</svg>